<svg width="18" height="20" viewBox="0 0 18 20" fill="none" xmlns="http://www.w3.org/2000/svg">
<path d="M14.7197 7.2279L13.9744 7.31248L14.7197 7.2279ZM15.1296 10.8396L15.8748 10.7551V10.7551L15.1296 10.8396ZM2.87059 10.8396L2.12537 10.7551H2.12537L2.87059 10.8396ZM3.28051 7.22791L4.02572 7.31249L3.28051 7.22791ZM2.07722 12.6334L1.50611 12.1473H1.50611L2.07722 12.6334ZM15.9229 12.6334L15.3518 13.1196L15.9229 12.6334ZM11.0809 3.00984H10.3309C10.3309 3.33042 10.5346 3.61556 10.8379 3.7194L11.0809 3.00984ZM6.9193 3.00984L7.16224 3.7194C7.46554 3.61556 7.6693 3.33042 7.6693 3.00984H6.9193ZM12.4524 17.5972C12.5977 17.2093 12.4012 16.777 12.0133 16.6317C11.6254 16.4863 11.1931 16.6829 11.0478 17.0708L12.4524 17.5972ZM6.95238 17.0708C6.80702 16.6829 6.37475 16.4863 5.98688 16.6317C5.59901 16.777 5.40242 17.2093 5.54778 17.5972L6.95238 17.0708ZM14.2958 14.7507H3.70433V16.2507H14.2958V14.7507ZM13.9744 7.31248L14.3844 10.9242L15.8748 10.7551L15.4649 7.14332L13.9744 7.31248ZM3.6158 10.9242L4.02572 7.31249L2.53529 7.14333L2.12537 10.7551L3.6158 10.9242ZM2.64833 13.1196C3.18517 12.4889 3.5243 11.7304 3.6158 10.9242L2.12537 10.7551C2.06921 11.2499 1.85964 11.732 1.50611 12.1473L2.64833 13.1196ZM14.3844 10.9242C14.4759 11.7304 14.815 12.4889 15.3518 13.1196L16.4941 12.1473C16.1405 11.732 15.931 11.2499 15.8748 10.7551L14.3844 10.9242ZM3.70433 14.7507C3.12547 14.7507 2.72196 14.465 2.53745 14.1399C2.36035 13.8278 2.36228 13.4556 2.64833 13.1196L1.50611 12.1473C0.786548 12.9926 0.764027 14.054 1.23288 14.8802C1.69432 15.6934 2.60717 16.2507 3.70433 16.2507V14.7507ZM14.2958 16.2507C15.393 16.2507 16.3058 15.6934 16.7673 14.8802C17.2361 14.054 17.2136 12.9926 16.4941 12.1473L15.3518 13.1196C15.6379 13.4556 15.6398 13.8278 15.4627 14.1399C15.2782 14.465 14.8747 14.7507 14.2958 14.7507V16.2507ZM11.8309 3.00984V2.91477H10.3309V3.00984H11.8309ZM15.4649 7.14332C15.2057 4.86002 13.5129 3.04981 11.3238 2.30028L10.8379 3.7194C12.5765 4.31468 13.7915 5.70077 13.9744 7.31248L15.4649 7.14332ZM7.6693 3.00984V2.91477H6.1693V3.00984H7.6693ZM4.02572 7.31249C4.20865 5.70077 5.42365 4.31468 7.16224 3.7194L6.67635 2.30028C4.48722 3.04981 2.79444 4.86002 2.53529 7.14333L4.02572 7.31249ZM9.00008 1.58398C9.73505 1.58398 10.3309 2.1798 10.3309 2.91477H11.8309C11.8309 1.35137 10.5635 0.0839844 9.00008 0.0839844V1.58398ZM9.00008 0.0839844C7.43668 0.0839844 6.1693 1.35137 6.1693 2.91477H7.6693C7.6693 2.1798 8.26511 1.58398 9.00008 1.58398V0.0839844ZM11.0478 17.0708C10.7615 17.8348 9.96924 18.4173 9.00008 18.4173V19.9173C10.5701 19.9173 11.9381 18.9694 12.4524 17.5972L11.0478 17.0708ZM9.00008 18.4173C8.03092 18.4173 7.23871 17.8348 6.95238 17.0708L5.54778 17.5972C6.06204 18.9694 7.43002 19.9173 9.00008 19.9173V18.4173Z" fill="white"/>
</svg>
