<svg width="22" height="22" viewBox="0 0 22 22" fill="none" xmlns="http://www.w3.org/2000/svg">
<path d="M14.25 15.3333L14.1029 16.0688C14.4346 16.1351 14.7696 15.9713 14.9208 15.6687L14.25 15.3333ZM6.66667 7.75L6.33126 7.07918C6.02875 7.23043 5.8649 7.56544 5.93123 7.89709L6.66667 7.75ZM7.05019 7.55824L7.38559 8.22906H7.3856L7.05019 7.55824ZM8.09292 4.81564L8.78928 4.53709L8.09292 4.81564ZM7.21146 2.61199L6.5151 2.89053V2.89053L7.21146 2.61199ZM19.388 14.7885L19.1095 15.4849L19.388 14.7885ZM17.1844 13.9071L17.4629 13.2107H17.4629L17.1844 13.9071ZM14.4418 14.9498L15.1126 15.2852V15.2852L14.4418 14.9498ZM15.6667 9.91667C15.6667 10.3309 16.0025 10.6667 16.4167 10.6667C16.8309 10.6667 17.1667 10.3309 17.1667 9.91667H15.6667ZM16.0868 8.25837L16.7797 7.97136L16.0868 8.25837ZM13.7416 5.91319L14.0286 5.22028L13.7416 5.91319ZM12.0833 4.83333C11.6691 4.83333 11.3333 5.16912 11.3333 5.58333C11.3333 5.99755 11.6691 6.33333 12.0833 6.33333V4.83333ZM20 9.91667C20 10.3309 20.3358 10.6667 20.75 10.6667C21.1642 10.6667 21.5 10.3309 21.5 9.91667H20ZM20.0903 6.60008L20.7832 6.31306V6.31306L20.0903 6.60008ZM15.3999 1.90971L15.6869 1.2168L15.6869 1.2168L15.3999 1.90971ZM12.0833 0.5C11.6691 0.5 11.3333 0.835786 11.3333 1.25C11.3333 1.66421 11.6691 2 12.0833 2V0.5ZM20 16.8002V18.5833H21.5V16.8002H20ZM3.41667 2H5.19976V0.5H3.41667V2ZM14.25 15.3333C14.3971 14.5979 14.3973 14.5979 14.3975 14.598C14.3976 14.598 14.3977 14.598 14.3978 14.5981C14.3981 14.5981 14.3982 14.5981 14.3984 14.5982C14.3986 14.5982 14.3987 14.5982 14.3987 14.5982C14.3986 14.5982 14.3978 14.598 14.3964 14.5978C14.3937 14.5972 14.3884 14.5961 14.3807 14.5944C14.3654 14.591 14.3404 14.5853 14.3067 14.5771C14.2391 14.5606 14.1363 14.5341 14.0046 14.4953C13.7409 14.4178 13.3631 14.292 12.9204 14.1023C12.0317 13.7214 10.9022 13.0916 9.90533 12.0947L8.84467 13.1553C10.0144 14.3251 11.3225 15.0494 12.3296 15.481C12.8348 15.6976 13.2696 15.8427 13.5813 15.9344C13.7374 15.9803 13.8632 16.0129 13.9521 16.0346C13.9966 16.0454 14.032 16.0535 14.0574 16.0591C14.0701 16.0619 14.0803 16.0641 14.0879 16.0657C14.0917 16.0665 14.0949 16.0671 14.0974 16.0676C14.0986 16.0679 14.0997 16.0681 14.1006 16.0683C14.1011 16.0684 14.1015 16.0685 14.1019 16.0686C14.1021 16.0686 14.1023 16.0687 14.1024 16.0687C14.1027 16.0687 14.1029 16.0688 14.25 15.3333ZM9.90533 12.0947C8.90842 11.0978 8.2786 9.96833 7.89769 9.07956C7.70798 8.6369 7.58225 8.25914 7.50468 7.99541C7.46595 7.86371 7.43937 7.76095 7.42292 7.69334C7.41471 7.65955 7.40903 7.6346 7.40564 7.61925C7.40395 7.61158 7.40283 7.60632 7.40225 7.60356C7.40196 7.60218 7.4018 7.60143 7.40178 7.60132C7.40177 7.60126 7.40179 7.60137 7.40184 7.60163C7.40187 7.60177 7.40191 7.60194 7.40195 7.60215C7.40197 7.60226 7.40201 7.60245 7.40202 7.6025C7.40206 7.6027 7.4021 7.60291 6.66667 7.75C5.93123 7.89709 5.93128 7.89732 5.93133 7.89756C5.93134 7.89766 5.9314 7.89791 5.93143 7.8981C5.93151 7.89848 5.93159 7.8989 5.93169 7.89936C5.93188 7.90028 5.9321 7.90137 5.93235 7.90262C5.93287 7.90513 5.93352 7.9083 5.93432 7.91211C5.93593 7.91973 5.93811 7.92994 5.94092 7.94264C5.94652 7.96802 5.9546 8.00337 5.96542 8.04787C5.98706 8.13684 6.01973 8.26259 6.06563 8.41866C6.15734 8.73045 6.30244 9.16518 6.51897 9.67044C6.95057 10.6775 7.67492 11.9856 8.84467 13.1553L9.90533 12.0947ZM7.00208 8.42082L7.38559 8.22906L6.71478 6.88742L6.33126 7.07918L7.00208 8.42082ZM8.78928 4.53709L7.90782 2.33344L6.5151 2.89053L7.39656 5.09418L8.78928 4.53709ZM19.6666 14.0922L17.4629 13.2107L16.9058 14.6034L19.1095 15.4849L19.6666 14.0922ZM13.7709 14.6144L13.5792 14.9979L14.9208 15.6687L15.1126 15.2852L13.7709 14.6144ZM17.4629 13.2107C16.0545 12.6474 14.4493 13.2576 13.7709 14.6144L15.1126 15.2852C15.4421 14.6262 16.2217 14.3298 16.9058 14.6034L17.4629 13.2107ZM7.3856 8.22906C8.74238 7.55067 9.35265 5.94552 8.78928 4.53709L7.39656 5.09418C7.6702 5.77827 7.37378 6.55792 6.71478 6.88742L7.3856 8.22906ZM5.19976 2C5.77904 2 6.29996 2.35268 6.5151 2.89053L7.90782 2.33344C7.46488 1.22611 6.3924 0.5 5.19976 0.5V2ZM21.5 16.8002C21.5 15.6076 20.7739 14.5351 19.6666 14.0922L19.1095 15.4849C19.6473 15.7 20 16.221 20 16.8002H21.5ZM18.5833 20C9.42461 20 2 12.5754 2 3.41667H0.5C0.5 13.4038 8.59618 21.5 18.5833 21.5V20ZM18.5833 21.5C20.1942 21.5 21.5 20.1942 21.5 18.5833H20C20 19.3657 19.3657 20 18.5833 20V21.5ZM2 3.41667C2 2.63426 2.63426 2 3.41667 2V0.5C1.80584 0.5 0.5 1.80584 0.5 3.41667H2ZM17.1667 9.91667C17.1667 9.24911 17.0352 8.5881 16.7797 7.97136L15.3939 8.54538C15.574 8.98013 15.6667 9.4461 15.6667 9.91667H17.1667ZM16.7797 7.97136C16.5243 7.35462 16.1498 6.79424 15.6778 6.32221L14.6171 7.38287C14.9499 7.71561 15.2138 8.11063 15.3939 8.54538L16.7797 7.97136ZM15.6778 6.32221C15.2058 5.85018 14.6454 5.47574 14.0286 5.22028L13.4546 6.6061C13.8894 6.78618 14.2844 7.05012 14.6171 7.38287L15.6778 6.32221ZM14.0286 5.22028C13.4119 4.96482 12.7509 4.83333 12.0833 4.83333V6.33333C12.5539 6.33333 13.0199 6.42602 13.4546 6.6061L14.0286 5.22028ZM21.5 9.91667C21.5 8.68005 21.2564 7.45555 20.7832 6.31306L19.3974 6.88709C19.7952 7.84758 20 8.87703 20 9.91667H21.5ZM20.7832 6.31306C20.31 5.17058 19.6163 4.1325 18.7419 3.25808L17.6813 4.31874C18.4164 5.05387 18.9995 5.9266 19.3974 6.88709L20.7832 6.31306ZM18.7419 3.25808C17.8675 2.38366 16.8294 1.69003 15.6869 1.2168L15.1129 2.60262C16.0734 3.00047 16.9461 3.58361 17.6813 4.31874L18.7419 3.25808ZM15.6869 1.2168C14.5445 0.743569 13.3199 0.5 12.0833 0.5V2C13.123 2 14.1524 2.20477 15.1129 2.60262L15.6869 1.2168Z" fill="#797C7B" />
</svg>
