<svg width="14" height="14" viewBox="0 0 14 14" fill="none" xmlns="http://www.w3.org/2000/svg">
<path d="M11.6667 5L10.3333 5C9.59695 5 9 4.40305 9 3.66667V2.33333M13 1L9.66667 4.33333M13 10.5694V11.6667C13 12.403 12.403 13 11.6667 13C5.77563 13 1 8.22437 1 2.33333C1 1.59695 1.59695 1 2.33333 1H3.43062C3.97583 1 4.46611 1.33194 4.66859 1.83815L5.21103 3.19424C5.46857 3.83809 5.18959 4.57187 4.56934 4.88199L4.33333 5C4.33333 5 4.66667 6.66667 6 8C7.33333 9.33333 9 9.66667 9 9.66667L9.11801 9.43066C9.42813 8.81041 10.1619 8.53143 10.8058 8.78897L12.1619 9.33141C12.6681 9.53389 13 10.0242 13 10.5694Z" stroke="#3D4A7A" stroke-width="1.2" stroke-linecap="round" stroke-linejoin="round"/>
</svg>
