<svg width="20" height="20" viewBox="0 0 20 20" fill="none" xmlns="http://www.w3.org/2000/svg">
<path d="M13.0308 7.342C13.0308 7.135 12.8628 6.968 12.6558 6.968C12.4488 6.969 12.2808 7.137 12.2808 7.344C12.2808 7.551 12.4488 7.719 12.6558 7.718C12.8628 7.718 13.0308 7.55 13.0308 7.343" stroke="#797C7B" stroke-opacity="0.39" stroke-width="1.5" stroke-linecap="round" stroke-linejoin="round"/>
<path fill-rule="evenodd" clip-rule="evenodd" d="M10.499 12.785L9.469 13.817H7.637V15.286H6.172V17.122L4.798 18.5H1.5V15.195L7.223 9.459C6.417 7.365 6.849 4.903 8.534 3.214C10.814 0.929002 14.511 0.929002 16.791 3.214C19.071 5.499 19.071 9.204 16.791 11.49C15.089 13.194 12.601 13.624 10.499 12.785Z" stroke="#797C7B" stroke-opacity="0.39" stroke-width="1.5" stroke-linecap="round" stroke-linejoin="round"/>
</svg>
