<svg width="26" height="26" viewBox="0 0 26 26" fill="none" xmlns="http://www.w3.org/2000/svg">
<path fill-rule="evenodd" clip-rule="evenodd" d="M21.5031 17.7623C22.2939 16.354 22.75 14.7312 22.75 13C22.75 7.61475 18.3853 3.25 13 3.25C7.61475 3.25 3.25 7.61475 3.25 13C3.25 18.3853 7.61475 22.75 13 22.75C14.7312 22.75 16.354 22.2939 17.7623 21.5031L22.75 22.75L21.5031 17.7623Z" stroke="#797C7B" stroke-opacity="0.39" stroke-width="1.5" stroke-linecap="round" stroke-linejoin="round"/>
<path d="M12.808 13.3499C12.9142 13.2438 13.0853 13.2438 13.1915 13.3499C13.2977 13.4561 13.2977 13.6273 13.1915 13.7334C13.0853 13.8396 12.9142 13.8396 12.808 13.7334C12.7029 13.6273 12.7029 13.4561 12.808 13.3499" stroke="#797C7B" stroke-opacity="0.39" stroke-width="1.5" stroke-linecap="round" stroke-linejoin="round"/>
<path d="M8.475 13.3499C8.58117 13.2438 8.75233 13.2438 8.8585 13.3499C8.96467 13.4561 8.96467 13.6273 8.8585 13.7334C8.75233 13.8396 8.58117 13.8396 8.475 13.7334C8.36992 13.6273 8.36992 13.4561 8.475 13.3499" stroke="#797C7B" stroke-opacity="0.39" stroke-width="1.5" stroke-linecap="round" stroke-linejoin="round"/>
<path d="M17.1415 13.3499C17.2477 13.2438 17.4188 13.2438 17.525 13.3499C17.6312 13.4561 17.6312 13.6273 17.525 13.7334C17.4188 13.8396 17.2477 13.8396 17.1415 13.7334C17.0364 13.6273 17.0364 13.4561 17.1415 13.3499" stroke="#797C7B" stroke-opacity="0.39" stroke-width="1.5" stroke-linecap="round" stroke-linejoin="round"/>
</svg>
