<svg width="20" height="20" viewBox="0 0 20 20" fill="none" xmlns="http://www.w3.org/2000/svg">
<path d="M10.9192 1.33334H9.08084C8.06553 1.33334 7.24246 2.10938 7.24246 3.06668C7.24246 4.16216 6.07035 4.85863 5.10819 4.33487L5.01046 4.28167C4.13117 3.80302 3.00683 4.08707 2.49918 4.91612L1.57998 6.41723C1.07232 7.24627 1.37359 8.30636 2.25288 8.785C3.2155 9.30901 3.21549 10.691 2.25288 11.215C1.37359 11.6937 1.07232 12.7538 1.57998 13.5828L2.49917 15.0839C3.00683 15.9129 4.13117 16.197 5.01046 15.7183L5.10819 15.6652C6.07035 15.1414 7.24246 15.8379 7.24246 16.9333C7.24246 17.8906 8.06553 18.6667 9.08084 18.6667H10.9192C11.9346 18.6667 12.7576 17.8906 12.7576 16.9333C12.7576 15.8379 13.9297 15.1414 14.8919 15.6651L14.9896 15.7183C15.8689 16.197 16.9932 15.9129 17.5009 15.0839L18.4201 13.5828C18.9278 12.7537 18.6265 11.6937 17.7472 11.215C16.7846 10.691 16.7846 9.30902 17.7472 8.78502C18.6265 8.30637 18.9278 7.24628 18.4201 6.41724L17.5009 4.91613C16.9932 4.08709 15.8689 3.80304 14.9896 4.28168L14.8919 4.33488C13.9297 4.85864 12.7576 4.16216 12.7576 3.06668C12.7576 2.10938 11.9346 1.33334 10.9192 1.33334Z" stroke="#797C7B" stroke-width="1.5" stroke-linejoin="round"/>
<circle cx="10" cy="10" r="3.25" stroke="#797C7B" stroke-width="1.5"/>
</svg>
