<svg width="26" height="26" viewBox="0 0 26 26" fill="none" xmlns="http://www.w3.org/2000/svg">
<path d="M13.9193 4.33334H12.081C11.0656 4.33334 10.2426 5.10938 10.2426 6.06668C10.2426 7.16216 9.07046 7.85863 8.1083 7.33487L8.01058 7.28167C7.13129 6.80302 6.00695 7.08707 5.49929 7.91612L4.58009 9.41723C4.07244 10.2463 4.3737 11.3064 5.25299 11.785C6.21561 12.309 6.21561 13.691 5.25299 14.215C4.3737 14.6937 4.07244 15.7538 4.58009 16.5828L5.49929 18.0839C6.00695 18.9129 7.13129 19.197 8.01058 18.7183L8.1083 18.6652C9.07046 18.1414 10.2426 18.8379 10.2426 19.9333C10.2426 20.8906 11.0656 21.6667 12.081 21.6667H13.9193C14.9347 21.6667 15.7577 20.8906 15.7577 19.9333C15.7577 18.8379 16.9299 18.1414 17.892 18.6651L17.9897 18.7183C18.869 19.197 19.9934 18.9129 20.501 18.0839L21.4202 16.5828C21.9279 15.7537 21.6266 14.6937 20.7473 14.215C19.7847 13.691 19.7847 12.309 20.7473 11.785C21.6266 11.3064 21.9279 10.2463 21.4202 9.41724L20.501 7.91613C19.9934 7.08709 18.869 6.80304 17.9897 7.28168L17.892 7.33488C16.9299 7.85864 15.7577 7.16216 15.7577 6.06668C15.7577 5.10938 14.9347 4.33334 13.9193 4.33334Z" stroke="#3D4A7A" stroke-width="1.5" stroke-linejoin="round"/>
<circle cx="13" cy="13" r="3.25" stroke="#3D4A7A" stroke-width="1.5"/>
</svg>
